<svg xmlns="http://www.w3.org/2000/svg" id="Calque_2" data-name="Calque 2" viewBox="0 0 459.39 27.87"><defs><style>      .cls-1 {        fill: #333;      }      .cls-1, .cls-2 {        stroke-width: 0px;      }      .cls-2 {        fill: #e7b128;      }    </style></defs><g id="Calque_1-2" data-name="Calque 1"><g><path class="cls-1" d="m0,27.87V0h26.75c8.25,0,10.78,2.73,10.78,8.23v11.68c0,5.23-2.53,7.96-10.78,7.96H0ZM32.02,8.23c0-3.21-1.16-4.12-5.27-4.12H5.52v19.63h21.23c4.11,0,5.27-.91,5.27-3.88v-11.64Z"></path><path class="cls-1" d="m42.71,27.87V0h30.03v4.12h-24.51v6.97h23.27v4.12h-23.27v8.55h24.51v4.12h-30.03Z"></path><path class="cls-1" d="m94.13,27.87L74.72,0h6.26l15.26,22.44L111.35,0h6.1l-19.29,27.87h-4.02Z"></path><path class="cls-1" d="m127.22,27.87c-6.64,0-9.17-2.73-9.17-6.73V6.73c0-4,2.53-6.73,9.17-6.73h19.29c6.64,0,9.17,2.73,9.17,6.73v14.41c0,4-2.53,6.73-9.17,6.73h-19.29Zm22.94-21.18c0-1.66-1.16-2.57-3.65-2.57h-19.29c-2.49,0-3.65.91-3.65,2.57v14.49c0,1.66,1.16,2.57,3.65,2.57h19.29c2.49,0,3.65-.91,3.65-2.57V6.69Z"></path><path class="cls-1" d="m189.68,27.87l-13.02-11.12-12.94,11.12h-7.22l16.67-13.93L156.5,0h7.17l12.98,11.16,12.98-11.16h7.09l-16.55,13.73,16.63,14.13h-7.13Z"></path></g><g><path class="cls-1" d="m239.61,16.39v11.48h-5.52V0h30.03v4.12h-24.51v8.15h22.85v4.12h-22.85Z"></path><path class="cls-1" d="m294.85,27.87l-6.84-12.43h-15.39v12.43h-5.52V0h24.8c6.64,0,9.17,2.73,9.17,6.73v1.98c0,3.6-2.03,6.17-7.22,6.65l6.88,12.51h-5.89Zm.71-21.18c0-1.66-1.16-2.57-3.65-2.57h-19.29v7.2h19.29c2.49,0,3.65-.91,3.65-2.57v-2.06Z"></path><path class="cls-1" d="m339.3,27.87l-15.05-22.44-15.3,22.44h-6.14L322.21,0h4.02l19.29,27.87h-6.22Z"></path><path class="cls-1" d="m384.17,27.87l-31.15-21.69v21.69h-4.81V0h4.77l29.07,20.7V0h4.81v27.87h-2.7Z"></path><path class="cls-1" d="m401.21,27.87c-6.64,0-9.17-2.73-9.17-6.73V6.73c0-4,2.53-6.73,9.17-6.73h23.52v4.12h-23.52c-2.49,0-3.65.91-3.65,2.57v14.49c0,1.66,1.16,2.57,3.65,2.57h23.52v4.12h-23.52Z"></path><path class="cls-1" d="m429.36,27.87V0h30.03v4.12h-24.51v6.97h23.27v4.12h-23.27v8.55h24.51v4.12h-30.03Z"></path></g><path class="cls-2" d="m208.87,27.87l-13.02-11.12-12.94,11.12h-7.22l16.67-13.93L175.69,0h7.17l12.98,11.16,12.98-11.16h7.09l-16.55,13.73,16.63,14.13h-7.13Z"></path><g><path class="cls-1" d="m219.72,4.25V1.03h-2.07V.47h4.83v.56h-2.02v3.22h-.75Z"></path><path class="cls-1" d="m228.31,4.25V1.6l-2.01,2.65h-.61l-2.02-2.64v2.64h-.69V.47h.7l2.35,3.09,2.34-3.09h.64v3.78h-.69Z"></path></g></g></svg>