<svg xmlns="http://www.w3.org/2000/svg" viewBox="0 0 189.8 46.5"><title>logo-kindarena-white</title><path d="M0,22.35V1.59A1.4,1.4,0,0,1,1.58,0h9a1.45,1.45,0,0,1,1.51,1.56q0,20.67,0,41.35a2.47,2.47,0,0,1-.06.81,1.34,1.34,0,0,1-1.32,1H1.42A1.37,1.37,0,0,1,0,43.18Z" style="fill:#fff"/><path d="M24.21,22.31V1.58A1.36,1.36,0,0,1,25.13.09a1.77,1.77,0,0,1,.6-.08H41.17c.34,0,.71,0,.89.36a.9.9,0,0,1-.2,1q-2.56,3.51-5.12,7L32.64,14q-2.3,3.15-4.61,6.29c-.28.38-.57.76-.83,1.15a1.49,1.49,0,0,0,0,1.81C28.1,24.5,29,25.75,29.93,27l5.23,7.17,5.76,7.88c.34.46.68.93,1,1.4.43.63.2,1.13-.56,1.21a2.26,2.26,0,0,1-.37,0H25.79a1.52,1.52,0,0,1-1.25-.48,1.31,1.31,0,0,1-.32-.73,4.3,4.3,0,0,1,0-.51V22.31Z" style="fill:#fff"/><path d="M57.54,22.38q0,10.67,0,21.34a2,2,0,0,1,0,.6c-.12.37-.32.44-.62.18a4,4,0,0,1-.67-.85c-2.48-3.39-4.94-6.8-7.41-10.2s-4.85-6.66-7.27-10a1.63,1.63,0,0,1,0-2.2c2.3-3.15,4.58-6.3,6.87-9.46Q52.49,6.15,56.57.52A2,2,0,0,1,57,.13c.23-.18.42-.11.52.17a1.87,1.87,0,0,1,.08.67Q57.54,11.67,57.54,22.38Z" style="fill:#fff"/><path d="M87.08,30.75c-1.82.14-3.65,0-5.48.06-.35,0-.38-.29-.49-.5-1-1.83-2-3.67-2.93-5.51-.08-.16-.12-.35-.34-.46-.4.46-.8.93-1.22,1.39a1.15,1.15,0,0,0-.2.86c0,1.23,0,2.45,0,3.68,0,.42-.11.56-.55.55-1.37,0-2.74,0-4.1,0-.54,0-.7-.11-.7-.67,0-4.22,0-8.45,0-12.67,0-2.67,0-5.33,0-8,0-.48.06-.69.62-.67,1.39,0,2.79,0,4.18,0,.48,0,.56.17.56.6,0,2.62,0,5.24,0,7.86v.83c.36,0,.44-.24.57-.4,1.28-1.46,2.56-2.93,3.82-4.41a1.31,1.31,0,0,1,1.12-.52c1.78,0,3.56,0,5.51,0l-2.43,3c-1,1.22-2,2.45-3,3.64a.78.78,0,0,0-.08,1c1.77,3.4,3.51,6.82,5.26,10.24Z" style="fill:#fff"/><path d="M122.34,21.81c0,2.71,0,5.42,0,8.14,0,.69-.22.87-.87.83-.88-.05-1.76,0-2.64,0-.43,0-.94.17-1.12-.5-.07-.27-.36-.06-.54,0a10.47,10.47,0,0,1-3.45.72,6.29,6.29,0,0,1-6.06-4,7.16,7.16,0,0,1,1.14-7.85,7,7,0,0,1,8.2-1.25c.52.28.62.18.61-.35,0-1.35,0-2.69,0-4,0-.53.11-.75.69-.72,1.11,0,2.23,0,3.34,0,.55,0,.72.17.71.72C122.33,16.29,122.34,19.05,122.34,21.81Zm-4.89,2.36a5.14,5.14,0,0,0-.55-2.55,2.62,2.62,0,0,0-4.32-.5,5.15,5.15,0,0,0-.35,5.43,2.69,2.69,0,0,0,4.64.08A4.61,4.61,0,0,0,117.45,24.17Z" style="fill:#fff"/><path d="M189.13,24.12c0,2,0,4,0,6.06,0,.46-.11.65-.62.63-1,0-2.09,0-3.13,0-.28,0-.57,0-.6-.4s-.34-.41-.66-.22a5.86,5.86,0,0,1-7.21-1c-3.55-3.51-2.41-10.41,2.69-11.85a5.44,5.44,0,0,1,4.48.6c.33.19.66.48.73-.22,0-.29.3-.26.49-.26h3.41c.49,0,.42.33.42.62v6.05ZM181.9,27a2.93,2.93,0,0,0,.1-5.85,2.84,2.84,0,0,0-2.88,2.9A2.87,2.87,0,0,0,181.9,27Z" style="fill:#fff"/><path d="M132.73,18.3c-.08-.78.3-.88.87-.86,1,0,2,0,2.92,0,.42,0,.57.11.57.54q0,6.16,0,12.31c0,.37-.16.5-.5.5H133.2c-.68,0-.29-.6-.57-.91a5.83,5.83,0,0,1-5.12.86,6.48,6.48,0,0,1-3.33-2.38,7.67,7.67,0,0,1,0-8.57,6.39,6.39,0,0,1,4-2.58A6.11,6.11,0,0,1,132.73,18.3ZM130,21.13a2.93,2.93,0,0,0-.1,5.85,2.93,2.93,0,0,0,.1-5.85Z" style="fill:#fff"/><path d="M155.55,25.41c-1.44,0-2.88,0-4.32,0-.46,0-.56.13-.42.56a2.42,2.42,0,0,0,2.1,1.78,2.12,2.12,0,0,0,2.4-1,.61.61,0,0,1,.64-.3c1.23,0,2.46,0,3.69,0,.5,0,.53.21.38.6a5.64,5.64,0,0,1-3.41,3.36,8.07,8.07,0,0,1-8.31-1.19c-2.9-2.33-2.92-6.73-1-9.36,2.94-3.92,8.87-3.41,11.41-.73a7.09,7.09,0,0,1,1.79,5c0,1.28,0,1.29-1.25,1.3s-2.5,0-3.75,0Zm-2.23-3h0c.65,0,1.29,0,1.94,0,.82,0,.94-.2.5-.92a2.57,2.57,0,0,0-2.71-1.14A2.5,2.5,0,0,0,150.86,22c-.14.36,0,.38.31.38Z" style="fill:#fff"/><path d="M161.16,24.12c0-1.94,0-3.89,0-5.84,0-.66.22-.85.83-.83,1,0,1.95,0,2.93,0,.31,0,.64,0,.83.35s.39.08.59,0a7.6,7.6,0,0,1,4.7-.47,4,4,0,0,1,3.35,4.13c0,2.92,0,5.84,0,8.77,0,.43-.16.55-.57.55-1.19,0-2.37,0-3.55,0-.53,0-.66-.2-.66-.7,0-2.57,0-5.15,0-7.72,0-1.31-.63-2-1.74-2.05a1.85,1.85,0,0,0-2,2.09c0,2.55,0,5.1,0,7.65,0,.59-.19.75-.76.73-1.09,0-2.18,0-3.27,0-.61,0-.73-.2-.73-.76,0-2,0-3.94,0-5.92Z" style="fill:#fff"/><path d="M93.37,24.11c0-2,0-3.95,0-5.92,0-.6.2-.76.75-.74.93,0,1.85,0,2.78,0,.4,0,.8-.09,1.09.38.18.29.52,0,.74-.11a7.56,7.56,0,0,1,4.09-.49,4.1,4.1,0,0,1,3.75,4.21c.06,2.92,0,5.85,0,8.77,0,.43-.17.56-.58.55-1.18,0-2.36,0-3.54,0-.52,0-.67-.15-.67-.67,0-2.6,0-5.2,0-7.8a1.74,1.74,0,0,0-1.8-2,1.84,1.84,0,0,0-1.91,2c0,2.5,0,5,0,7.51,0,.93,0,.93-1,.93s-2,0-2.92,0c-.65,0-.89-.14-.87-.84,0-1.95,0-3.9,0-5.84Z" style="fill:#fff"/><path d="M137.91,24.07c0-2,0-4,0-6,0-.49.16-.64.63-.63,1.11,0,2.22,0,3.33,0,.21,0,.46,0,.5.26.12.73.52.39.81.19a4.26,4.26,0,0,1,2.68-.8c.38,0,.53.17.53.55,0,1,0,1.91,0,2.86,0,.36-.14.5-.5.48a6.76,6.76,0,0,0-.9,0,2.31,2.31,0,0,0-2.46,2.58c0,2.13,0,4.26,0,6.4,0,.63-.17.85-.82.82-1-.05-2-.05-3,0-.61,0-.85-.12-.83-.8.05-2,0-3.94,0-5.91Z" style="fill:#fff"/><path d="M87.65,24.09c0-2,0-4,0-6,0-.52.16-.69.68-.67,1.22,0,2.45,0,3.68,0,.42,0,.57.13.57.55q0,6.12,0,12.23c0,.39-.16.55-.54.55-1.3,0-2.59,0-3.89,0-.48,0-.5-.29-.49-.64V24.09Z" style="fill:#fff"/><path d="M74.56,43.46l1.67-4.17a1.2,1.2,0,0,1,1.41-.52c.2.1.12.28.12.43,0,1.74,0,3.48,0,5.21,0,.37-.11.47-.47.47s-.43-.2-.43-.52c0-1.25,0-2.5,0-3.75,0-.15.07-.32-.16-.48-.54,1.38-1.07,2.74-1.62,4.1-.11.27-.1.66-.59.65s-.43-.36-.53-.62c-.56-1.4-1.12-2.81-1.78-4.2,0,1.39,0,2.78,0,4.18,0,.29.15.65-.42.65s-.45-.33-.45-.64c0-1.63,0-3.25,0-4.87,0-.21-.18-.63.21-.6s1-.34,1.26.34C73.37,40.51,73.93,41.9,74.56,43.46Z" style="fill:#fff"/><path d="M90.14,12.81c.6,0,1.21,0,1.81,0,.45,0,.63.11.62.57,0,1.05,0,2.09,0,3.13,0,.37-.09.55-.5.55-1.25,0-2.5,0-3.75,0-.48,0-.7-.13-.68-.67.05-1,0-2,0-3,0-.41.12-.59.56-.57.64,0,1.29,0,1.94,0Z" style="fill:#fff"/><path d="M148.39,43.27c0-1.44,0-2.71,0-4,0-.38.07-.54.49-.55s.47.21.46.55c0,1.65,0,3.29,0,4.93,0,.22.17.57-.19.63a.8.8,0,0,1-.95-.34c-.81-1.27-1.68-2.49-2.54-3.72-.08-.13-.17-.25-.37-.52,0,1.46,0,2.75,0,4,0,.38,0,.58-.5.59s-.47-.28-.47-.61c0-1.62,0-3.24,0-4.86,0-.22-.18-.57.19-.64s.7-.12,1,.29c.82,1.26,1.68,2.49,2.53,3.73A3.86,3.86,0,0,0,148.39,43.27Z" style="fill:#fff"/><path d="M162.39,41.05a1.82,1.82,0,0,1,2.19-.69,1.77,1.77,0,0,1,1,1.88c0,.74,0,1.49,0,2.23,0,.37-.16.4-.46.41s-.41-.08-.41-.39c0-.74,0-1.49,0-2.23s-.57-1.36-1.26-1.2a1,1,0,0,0-.82.9,18.6,18.6,0,0,0,0,2.36c0,.34,0,.57-.46.57s-.43-.29-.43-.6c0-.67,0-1.34,0-2s-.37-1.22-1-1.23a1.11,1.11,0,0,0-1.08,1.2c0,.69,0,1.39,0,2.08,0,.34,0,.57-.45.55s-.41-.25-.41-.53c0-1.18,0-2.37,0-3.55,0-.15-.08-.37.12-.42s.57,0,.59,0c.15.55.38.19.58.07A1.7,1.7,0,0,1,162.39,41.05Z" style="fill:#fff"/><path d="M118.42,42.63l1.37,2.19c-.59.09-1,.15-1.33-.46s-.85-1.42-1.31-2.18l.76-.12A1.14,1.14,0,0,0,119,40.84a1.15,1.15,0,0,0-1.17-1.2c-1.21-.1-1.21-.1-1.21,1.08s0,2.41,0,3.62c0,.44-.13.53-.55.55s-.44-.26-.44-.57c0-1.67,0-3.34,0-5,0-.49.16-.59.59-.57.6,0,1.2,0,1.81,0a1.83,1.83,0,0,1,1.91,1.72A1.9,1.9,0,0,1,118.42,42.63Z" style="fill:#fff"/><path d="M181.36,40.89c0-.59,0-1.14,0-1.68s.16-.45.48-.46.42.16.42.47c0,1.69,0,3.38,0,5.07,0,.26.1.57-.36.59s-.52-.17-.46-.66a2.34,2.34,0,0,1-2.18.73,2.06,2.06,0,0,1-1.24-.71,2.53,2.53,0,0,1,.06-3.3C178.91,40,180.08,40,181.36,40.89Zm.08,1.76a1.58,1.58,0,1,0-3.16,0,1.58,1.58,0,0,0,3.16,0Z" style="fill:#fff"/><path d="M95.61,41c1.33-1,2.57-1,3.38-.09a2.58,2.58,0,0,1,.07,3.31c-.81,1-2,1-3.36.11,0,.62,0,1.19,0,1.76,0,.36-.16.4-.46.41s-.44-.09-.44-.43c0-1.72,0-3.43,0-5.15,0-.24-.12-.55.36-.58S95.67,40.53,95.61,41Zm3.16,1.6A1.57,1.57,0,0,0,97.17,41a1.61,1.61,0,0,0-1.55,1.63,1.58,1.58,0,1,0,3.15-.07Z" style="fill:#fff"/><path d="M170.37,40.92c0-.4.15-.65.62-.58s.3.46.3.7c0,1.05,0,2.09,0,3.13,0,.25.22.64-.3.71s-.7,0-.56-.62c-1.23,1-2.51.94-3.36,0A2.53,2.53,0,0,1,167,41C167.85,40,169.09,40,170.37,40.92ZM168.9,41a1.57,1.57,0,0,0-1.6,1.57,1.57,1.57,0,1,0,3.14,0A1.58,1.58,0,0,0,168.9,41Z" style="fill:#fff"/><path d="M135.52,43.56a2.27,2.27,0,0,1-2.83,1.34,2.35,2.35,0,0,1-1.61-2.72,2.39,2.39,0,0,1,2.34-2,2.33,2.33,0,0,1,2.31,2.07c.06.45,0,.63-.52.6-1,0-1.9,0-2.85,0-.44,0-.53.14-.34.53a1.53,1.53,0,0,0,2.4.46A1,1,0,0,1,135.52,43.56Zm-2.13-1.33c.34,0,.69,0,1,0,.55,0,.45-.23.27-.54a1.55,1.55,0,0,0-2.49-.16c-.13.18-.35.39-.23.61s.38.07.57.08S133.11,42.23,133.39,42.23Z" style="fill:#fff"/><path d="M83.18,43.55a2.38,2.38,0,0,1-4.55-.6,2.47,2.47,0,0,1,1.19-2.41,2.36,2.36,0,0,1,3.52,1.75c0,.41,0,.63-.53.6-.93,0-1.86,0-2.79,0-.59,0-.54.28-.35.65a1.52,1.52,0,0,0,2.33.34C82.35,43.47,82.69,43.5,83.18,43.55Zm-2.27-1.34v0c.39,0,.78,0,1.17,0s.39-.19.26-.47a1.58,1.58,0,0,0-2.52-.26c-.14.17-.33.38-.23.61s.36.09.56.1Z" style="fill:#fff"/><path d="M112.12,43.53a2.32,2.32,0,0,1-2.8,1.39,2.4,2.4,0,0,1,.49-4.69,2.36,2.36,0,0,1,2.43,1.68c.24.82.13,1-.71,1s-1.67,0-2.5,0c-.55,0-.64.18-.36.66a1.52,1.52,0,0,0,2.28.35A1.23,1.23,0,0,1,112.12,43.53Zm-2.21-1.3v0a9.12,9.12,0,0,1,1.17,0c.49.05.37-.18.25-.44a1.56,1.56,0,0,0-2.55-.24c-.13.16-.29.35-.23.55s.35.11.54.13A7.48,7.48,0,0,0,109.91,42.23Z" style="fill:#fff"/><path d="M189.55,43.57a2.3,2.3,0,0,1-2.86,1.33,2.4,2.4,0,0,1,.81-4.68,2.4,2.4,0,0,1,2.3,2.19c0,.38-.1.49-.46.48-1,0-2,0-2.92,0-.55,0-.51.24-.34.59a1.51,1.51,0,0,0,2.36.39A1.06,1.06,0,0,1,189.55,43.57Zm-2.16-1.34h0c.35,0,.69,0,1,0s.53-.12.32-.51a1.55,1.55,0,0,0-2.56-.09c-.1.14-.22.35-.18.49s.31.11.48.11S187.09,42.23,187.39,42.23Z" style="fill:#fff"/><path d="M122.78,45a2.31,2.31,0,0,1-2.4-2.32,2.41,2.41,0,0,1,4.82-.07A2.33,2.33,0,0,1,122.78,45Zm1.53-2.33a1.53,1.53,0,0,0-1.49-1.6,1.58,1.58,0,0,0-1.58,1.59,1.62,1.62,0,0,0,1.55,1.58A1.56,1.56,0,0,0,124.31,42.64Z" style="fill:#fff"/><path d="M93.92,42.6a2.39,2.39,0,0,1-4.77,0,2.39,2.39,0,1,1,4.77,0Zm-3.91,0a1.54,1.54,0,0,0,1.5,1.58,1.58,1.58,0,0,0,0-3.16A1.53,1.53,0,0,0,90,42.62Z" style="fill:#fff"/><path d="M102.66,45a2.27,2.27,0,0,1-2.4-2.31,2.4,2.4,0,1,1,4.79,0A2.3,2.3,0,0,1,102.66,45Zm-1.52-2.38a1.51,1.51,0,0,0,1.46,1.61,1.59,1.59,0,0,0,1.59-1.59A1.57,1.57,0,0,0,102.66,41,1.52,1.52,0,0,0,101.14,42.59Z" style="fill:#fff"/><path d="M152.62,45a2.28,2.28,0,0,1-2.35-2.42,2.38,2.38,0,1,1,4.76.11A2.29,2.29,0,0,1,152.62,45Zm1.56-2.32A1.57,1.57,0,0,0,152.63,41a1.58,1.58,0,0,0,0,3.16A1.57,1.57,0,0,0,154.18,42.66Z" style="fill:#fff"/><path d="M137.42,40.9a2.13,2.13,0,0,1,1.31-.67,1.68,1.68,0,0,1,2,1.58c.06.88,0,1.76.05,2.64,0,.34-.12.43-.45.43s-.45-.08-.44-.43c0-.64,0-1.29,0-1.94,0-1-.38-1.47-1.17-1.46s-1.21.46-1.22,1.49c0,.62,0,1.25,0,1.87,0,.3,0,.48-.41.48s-.47-.11-.46-.48c0-1.16,0-2.32,0-3.48,0-.2-.16-.54.27-.58S137.48,40.37,137.42,40.9Z" style="fill:#fff"/><path d="M129.46,44.24a2,2,0,0,1-2.45.57,1.74,1.74,0,0,1-.94-1.86c0-.72,0-1.44,0-2.16,0-.31.06-.46.42-.45s.45.1.44.44c0,.69,0,1.39,0,2.08,0,.86.47,1.35,1.18,1.35s1.18-.39,1.24-1.28c0-.71,0-1.43,0-2.15,0-.33.1-.45.43-.44s.46.1.45.44c0,1.2,0,2.41,0,3.61,0,.28,0,.5-.39.49S129.31,44.78,129.46,44.24Z" style="fill:#fff"/><path d="M173.15,41a2,2,0,0,1,2.43-.62,1.84,1.84,0,0,1,1,1.9c0,.7,0,1.39,0,2.09,0,.35-.09.48-.46.49s-.44-.2-.44-.51c0-.74,0-1.49,0-2.22A1.05,1.05,0,0,0,174.5,41a1.16,1.16,0,0,0-1.21,1.18c0,.74,0,1.48,0,2.22,0,.35-.13.43-.44.44s-.43-.12-.42-.44c0-1.21,0-2.42,0-3.62,0-.22-.06-.49.32-.47S173.41,40.3,173.15,41Z" style="fill:#fff"/><path d="M85,38.77c.3,0,.45.06.42.38s0,.46,0,.69,0,.58.47.51.41.07.41.38-.19.34-.4.3c-.42-.06-.49.15-.49.52,0,1,0,1.89,0,2.84,0,.36-.09.5-.46.49s-.43-.17-.42-.47c0-.95,0-1.9,0-2.85,0-.35,0-.59-.47-.53-.2,0-.35,0-.34-.29s0-.43.33-.38c.49.08.5-.23.48-.58,0-.18,0-.37,0-.55C84.47,38.87,84.6,38.7,85,38.77Z" style="fill:#fff"/><path d="M106.8,41.82c0,.86,0,1.71,0,2.57,0,.29,0,.5-.39.49s-.5-.07-.5-.46c0-1.74,0-3.48,0-5.22,0-.33.1-.44.44-.45s.46.15.46.49C106.79,40.1,106.8,41,106.8,41.82Z" style="fill:#fff"/><path d="M155.92,42.57c0-.6,0-1.2,0-1.8,0-.18,0-.41.23-.4s.49-.19.57.18.14.25.3.09a1,1,0,0,1,.53-.31c.18,0,.43-.27.5.06s.23.67-.23.73c-.85.11-1,.68-1,1.38s0,1.3,0,1.94c0,.34-.12.44-.44.44s-.46-.1-.46-.44C155.93,43.82,155.92,43.2,155.92,42.57Z" style="fill:#fff"/><path d="M86.9,42.54v-1.8c0-.15-.08-.37.17-.37s.51-.19.59.14.24.17.4.06a1.28,1.28,0,0,1,.48-.24c.16,0,.44-.3.48.08s.22.66-.27.72c-.81.1-1,.65-1,1.33s0,1.34,0,2c0,.37-.18.4-.47.41s-.41-.09-.4-.4c0-.65,0-1.29,0-1.94Z" style="fill:#fff"/><path d="M183.4,42.63c0-.6,0-1.2,0-1.8,0-.34,0-.5.45-.49s.42.14.41.45c0,1.23,0,2.45,0,3.68,0,.35-.15.41-.45.41s-.43-.13-.42-.45C183.42,43.83,183.41,43.23,183.4,42.63Z" style="fill:#fff"/><path d="M80.4,39.77c-.29,0-.26-.16-.33-.26s-.08-.21.05-.28c.54-.3,1.08-.6,1.61-.91.17-.1.28,0,.32.11s.27.33.1.43C81.56,39.2,80.94,39.5,80.4,39.77Z" style="fill:#fff"/><path d="M183.81,39.64c-.44.1-.39-.2-.41-.49s.16-.37.45-.4c.45,0,.39.22.42.51S184.12,39.7,183.81,39.64Z" style="fill:#fff"/><path d="M87.17,30.67v.12l-.09,0Z" style="fill:#fff"/></svg>