<svg xmlns="http://www.w3.org/2000/svg" viewBox="0 0 400 220"><title>codeurs-en-seine-logo-blanc</title><path d="M183.63,63q-3.23,5.7-3.22,17.4,0,21.63,13.27,21.62a9.53,9.53,0,0,0,4.74-1.19V95.48a8.94,8.94,0,0,1-3.48.9q-8.26,0-8.29-16.15a56.61,56.61,0,0,1,.46-7.78A20.23,20.23,0,0,1,188.55,67,7.41,7.41,0,0,1,191,63.84a6.12,6.12,0,0,1,3.58-1,9.15,9.15,0,0,1,3.79,1.1V58.62a10.06,10.06,0,0,0-4.85-1.3A10.64,10.64,0,0,0,183.63,63Z" style="fill:#fff"/><path d="M224.38,61.08q-2.65-3.75-8.14-3.75-6.12,0-8.69,4.87T205,78.66q0,13.05,2.59,18.16c1.73,3.49,4.72,5.22,8.95,5.22q6,0,8.61-4.86t2.56-16.42a74,74,0,0,0-.8-12.54A17.84,17.84,0,0,0,224.38,61.08Zm-3.9,32.31q-1.09,3.28-4.06,3.28c-2,0-3.39-1.16-4.13-3.49s-1.08-6.89-1.08-13.28q0-10.4,1-13.84t4.18-3.42q3.13,0,4.15,3.73t1,15Q221.59,90.15,220.48,93.39Z" style="fill:#fff"/><path d="M256.45,68.17a15.71,15.71,0,0,0-3.5-7.06,8.92,8.92,0,0,0-3.73-2.51,18.26,18.26,0,0,0-5.57-.73h-7.23l0,43.61h4.74q8.25,0,11.44-2.86A12.89,12.89,0,0,0,256.36,92a49.11,49.11,0,0,0,1.15-11.75A52.71,52.71,0,0,0,256.45,68.17ZM249.5,93.09c-1.2,2.16-3.59,3.25-7.17,3.25l0-33.52H243c3.17,0,5.34,1.25,6.53,3.77s1.79,7.15,1.79,13.87Q251.37,89.84,249.5,93.09Z" style="fill:#fff"/><polygon points="281.88 96.48 272.14 96.48 272.12 81.6 280.77 81.59 280.76 76.62 272.12 76.63 272.11 62.82 281.85 62.81 281.85 57.84 266.23 57.85 266.27 101.46 281.88 101.45 281.88 96.48" style="fill:#fff"/><path d="M310.21,89.48l0-31.66h-5.76l0,31.66c0,2.83-.28,4.7-.84,5.62s-1.67,1.36-3.39,1.36-2.86-.51-3.44-1.55-.85-3.12-.86-6.27l0-30.81h-5.77l0,30.82c0,4.76.56,8,1.68,9.65q2.4,3.67,8.27,3.67,5.34,0,7.94-2.86Q310.23,96.59,310.21,89.48Z" style="fill:#fff"/><path d="M336.1,76.67a15.6,15.6,0,0,0,1.56-7.52q0-6.11-3-9.07-2.35-2.28-7.15-2.28H319.8l0,43.6h5.87V80.06l8,21.34h6l-8-21.21A6.7,6.7,0,0,0,336.1,76.67Zm-10.41.45V62.63h1a6.19,6.19,0,0,1,2.39.42,3.77,3.77,0,0,1,1.63,1.33,6.13,6.13,0,0,1,.94,2.34,17.34,17.34,0,0,1,.3,3.48q0,3.75-1.41,5.33T325.69,77.12Z" style="fill:#fff"/><path d="M362.43,84.09a26.1,26.1,0,0,0-4.9-6.29q-1.95-2-3.18-3.33a17.42,17.42,0,0,1-1.76-2.26,7.11,7.11,0,0,1-1-3.92A5.85,5.85,0,0,1,353,64.13a4.86,4.86,0,0,1,3.79-1.64,8.61,8.61,0,0,1,4.83,1.92V58.67a12.81,12.81,0,0,0-6-1.49,9.17,9.17,0,0,0-7.19,3,11.74,11.74,0,0,0-2.65,8.11,12.93,12.93,0,0,0,1.36,6.27,18.69,18.69,0,0,0,2.18,3q1.47,1.7,3.7,3.9,1.44,1.44,2.4,2.61a17.86,17.86,0,0,1,1.5,2.07A8.62,8.62,0,0,1,358,90.39a6.5,6.5,0,0,1-1.35,4.34,4.66,4.66,0,0,1-3.76,1.6,10,10,0,0,1-5.7-2.28v5.82a10.16,10.16,0,0,0,6.41,2,9.37,9.37,0,0,0,7.32-3.2,12.22,12.22,0,0,0,2.84-8.33A14,14,0,0,0,362.43,84.09Z" style="fill:#fff"/><path d="M218.61,141q-2-1.95-3.18-3.33a18.4,18.4,0,0,1-1.77-2.26,7.2,7.2,0,0,1-1-3.93,5.75,5.75,0,0,1,1.46-4.15,4.86,4.86,0,0,1,3.78-1.64,8.61,8.61,0,0,1,4.83,1.92v-5.74a12.81,12.81,0,0,0-6-1.49,9.14,9.14,0,0,0-7.2,3,11.79,11.79,0,0,0-2.65,8.11,13.17,13.17,0,0,0,1.36,6.27,19.35,19.35,0,0,0,2.18,3q1.47,1.7,3.71,3.89,1.44,1.44,2.4,2.61a17.87,17.87,0,0,1,1.5,2.08,8.84,8.84,0,0,1,1.05,4.26,6.47,6.47,0,0,1-1.36,4.34,4.66,4.66,0,0,1-3.75,1.6,10,10,0,0,1-5.71-2.29V163a10.11,10.11,0,0,0,6.41,2.06,9.35,9.35,0,0,0,7.31-3.2,12.22,12.22,0,0,0,2.85-8.33,13.79,13.79,0,0,0-1.31-6.3A25.82,25.82,0,0,0,218.61,141Z" style="fill:#fff"/><polygon points="232.65 164.52 248.27 164.5 248.27 159.53 238.52 159.54 238.51 144.66 247.15 144.65 247.15 139.68 238.5 139.69 238.49 125.88 248.24 125.87 248.23 120.9 232.61 120.91 232.65 164.52" style="fill:#fff"/><rect x="256.54" y="120.89" width="5.87" height="43.61" style="fill:#fff"/><path d="M286.45,137.13c0,2.41.12,5,.35,7.71s.58,5.78,1.05,9.15a158.4,158.4,0,0,0-4.5-15.73l-5.86-17.39H272l0,43.6h5.79l-.33-19c0-.55,0-1,0-1.47s0-.8,0-1.1l-.32-5.39-.31-4.44c0-.24-.05-.54-.09-.89s-.08-.76-.14-1.25c.12.49.21.92.3,1.29s.15.7.18,1c.46,2.11.95,4.13,1.49,6s1.11,3.79,1.72,5.62l6.59,19.62h5.51l0-43.61h-5.9Z" style="fill:#fff"/><polygon points="302 164.46 317.61 164.44 317.61 159.47 307.87 159.48 307.85 144.6 316.5 144.59 316.49 139.62 307.85 139.63 307.84 125.81 317.58 125.81 317.57 120.84 301.96 120.85 302 164.46" style="fill:#fff"/><path d="M132.45,142.78a14,14,0,0,0,1.76-1.77,11.89,11.89,0,0,0,1.36-2.07,4.37,4.37,0,0,0,.54-1.95,2.24,2.24,0,0,0-.51-1.5,1.79,1.79,0,0,0-1.45-.59,3.72,3.72,0,0,0-2.57,1.08,10,10,0,0,0-2,2.64,14.92,14.92,0,0,0-1.29,3.23,11.34,11.34,0,0,0-.45,2.86,7.52,7.52,0,0,0,.21,1.8,4.29,4.29,0,0,0,.68,1.5,3.73,3.73,0,0,0,1.21,1.05,3.63,3.63,0,0,0,1.78.4,8.1,8.1,0,0,0,2.76-.48,10.06,10.06,0,0,0,2.47-1.3,12.21,12.21,0,0,0,2.12-1.89,13.15,13.15,0,0,0,1.62-2.27,3.09,3.09,0,0,0,.24-.49,1.74,1.74,0,0,0,.07-.56.31.31,0,0,0-.16-.28.57.57,0,0,0-.33-.11.79.79,0,0,0-.63.32c-.16.21-.3.41-.42.59a13.51,13.51,0,0,1-1.22,1.75,10.27,10.27,0,0,1-1.53,1.56,8.06,8.06,0,0,1-1.82,1.11,4.93,4.93,0,0,1-2.09.44,2.05,2.05,0,0,1-1.75-.68,3,3,0,0,1-.52-1.87,6.64,6.64,0,0,1,.17-1.47A6.08,6.08,0,0,0,132.45,142.78ZM131.19,141a17.42,17.42,0,0,1,.76-2,11.49,11.49,0,0,1,1-1.76c.35-.5.7-.76,1-.76a.47.47,0,0,1,.47.27,1.25,1.25,0,0,1,.12.54,3.31,3.31,0,0,1-.38,1.46,9.83,9.83,0,0,1-.94,1.47,9.46,9.46,0,0,1-1.22,1.3,10.38,10.38,0,0,1-1.23.94A11.9,11.9,0,0,1,131.19,141Z" style="fill:#fff"/><path d="M151.4,140c0-.26,0-.57,0-.94a6.1,6.1,0,0,0-.19-1.12,2.61,2.61,0,0,0-.48-.94,1,1,0,0,0-.84-.39,2.57,2.57,0,0,0-1.55.77,17.61,17.61,0,0,0-1.76,1.79c-.58.67-1.12,1.36-1.62,2.06l-1.14,1.6c.1-.67.21-1.35.35-2a12.62,12.62,0,0,1,.59-2c.21-.56.42-1.17.61-1.84a6.53,6.53,0,0,0,.3-1.9,1.47,1.47,0,0,0-.23-.87.94.94,0,0,0-.82-.32,1.92,1.92,0,0,0-1.27.53,2.1,2.1,0,0,0-.75,1.15c-.12.54-.22,1.09-.32,1.64s-.19,1.11-.31,1.65c-.35,1.67-.7,3.42-1.06,5.23a27.34,27.34,0,0,0-.54,5.31,1,1,0,0,0,.18.61.6.6,0,0,0,.56.26,1.16,1.16,0,0,0,.85-.35,2.61,2.61,0,0,0,.58-.76c.39-.89.8-1.76,1.22-2.61a27.66,27.66,0,0,1,1.39-2.49c.42-.68.89-1.39,1.4-2.14a12.25,12.25,0,0,1,1.64-2,4.88,4.88,0,0,1,.38-.35.69.69,0,0,1,.42-.21c.14,0,.23.09.26.28a1.93,1.93,0,0,1,.05.42c0,.67,0,1.33-.06,2s-.07,1.31-.07,2c0,.44,0,.93.05,1.46a5.13,5.13,0,0,0,.32,1.5,2.89,2.89,0,0,0,.77,1.17,2,2,0,0,0,1.41.47,3.86,3.86,0,0,0,2-.63,11.11,11.11,0,0,0,2-1.53,14.17,14.17,0,0,0,1.64-1.94,13.62,13.62,0,0,0,1.1-1.84c.05-.09.1-.21.16-.35a1.07,1.07,0,0,0,.08-.35.84.84,0,0,0-.15-.47.51.51,0,0,0-.44-.22.6.6,0,0,0-.52.31c-.14.21-.26.4-.35.56-.19.37-.46.83-.8,1.36a13.41,13.41,0,0,1-1.19,1.56,9.2,9.2,0,0,1-1.38,1.29,2.36,2.36,0,0,1-1.41.54.92.92,0,0,1-.65-.21,1.22,1.22,0,0,1-.33-.52,2.48,2.48,0,0,1-.12-.68c0-.25,0-.47,0-.68,0-.82,0-1.63.07-2.45S151.4,140.79,151.4,140Z" style="fill:#fff"/><path d="M144.18,119.14l7.09-20.74a22.61,22.61,0,1,1,14.64-42.77L173,34.89a44.53,44.53,0,1,0-28.83,84.25Z" style="fill:#fff"/><path d="M157.24,100.2l-7.14,20.86a22.82,22.82,0,0,1-8.57,44,22.17,22.17,0,0,1-6.18-.85l-7.08,20.7a44.76,44.76,0,0,0,29-84.67Z" style="fill:#fff"/><path d="M125,158a21.09,21.09,0,0,1-3.89-5.56c-2.06-4.32-2.16-8.89-2.2-13.49a62.85,62.85,0,0,0-.44-8.46A41,41,0,0,0,37,136.64c0,24.15,12.51,37.44,38.68,47.05l7-20.48c-17.31-7-23.71-16.1-23.72-26.59a18.92,18.92,0,0,1,19-19,18.58,18.58,0,0,1,14.65,6.82c4.9,6.24,3.83,13.7,4.38,21.07a44.77,44.77,0,0,0,25.5,37.09l7.16-20.92C129.6,161.74,125.37,158.41,125,158Z" style="fill:#fff"/></svg>