<svg xmlns="http://www.w3.org/2000/svg" viewBox="0 0 400 220"><title>meetups-ces-logo-blanc</title><path d="M183.08,63q-3.24,5.72-3.24,17.43,0,21.67,13.27,21.67a9.6,9.6,0,0,0,4.76-1.18V95.51a8.8,8.8,0,0,1-3.48.91q-8.29,0-8.3-16.19a56.67,56.67,0,0,1,.47-7.8A20.13,20.13,0,0,1,188,67a7.57,7.57,0,0,1,2.48-3.19,6.24,6.24,0,0,1,3.59-1,9.19,9.19,0,0,1,3.8,1.1V58.58a10.25,10.25,0,0,0-4.87-1.3A10.67,10.67,0,0,0,183.08,63Z" style="fill:#fff"/><path d="M223.91,61.07q-2.66-3.76-8.15-3.76-6.13,0-8.71,4.87T204.5,78.67q0,13.08,2.57,18.2t9,5.23q6.06,0,8.64-4.86t2.57-16.44a74.44,74.44,0,0,0-.79-12.57A17.89,17.89,0,0,0,223.91,61.07ZM220,93.45c-.74,2.18-2.1,3.28-4.08,3.28s-3.39-1.17-4.13-3.51-1.07-6.91-1.07-13.3q0-10.41,1-13.87t4.19-3.42c2.1,0,3.48,1.24,4.16,3.73s1,7.49,1,15.06Q221.08,90.2,220,93.45Z" style="fill:#fff"/><path d="M257.09,80.29a53.11,53.11,0,0,0-1-12.09,15.86,15.86,0,0,0-3.51-7.07,8.79,8.79,0,0,0-3.73-2.52,18.29,18.29,0,0,0-5.58-.73H236v43.69h4.75q8.27,0,11.46-2.86a12.94,12.94,0,0,0,3.74-6.65A49.22,49.22,0,0,0,257.09,80.29Zm-8,12.87c-1.21,2.17-3.6,3.26-7.19,3.26V62.83h.74q4.76,0,6.54,3.79t1.78,13.89Q250.92,89.92,249.05,93.16Z" style="fill:#fff"/><polygon points="281.49 96.59 271.73 96.59 271.73 81.67 280.39 81.67 280.39 76.69 271.73 76.69 271.73 62.86 281.49 62.86 281.49 57.88 265.84 57.88 265.84 101.57 281.49 101.57 281.49 96.59" style="fill:#fff"/><path d="M299.75,102.1q5.36,0,8-2.85,2.18-2.52,2.18-9.65V57.88h-5.78V89.6c0,2.83-.28,4.7-.85,5.63s-1.68,1.36-3.39,1.36S297,96.07,296.42,95s-.85-3.13-.85-6.28V57.88h-5.78V88.75q0,7.16,1.67,9.68Q293.88,102.1,299.75,102.1Z" style="fill:#fff"/><path d="M325.4,80.17l8,21.4h6l-8-21.25a6.76,6.76,0,0,0,4.48-3.53,15.54,15.54,0,0,0,1.57-7.54q0-6.1-3-9.08c-1.57-1.53-3.95-2.29-7.16-2.29h-7.75v43.69h5.88Zm0-17.46h1a6.2,6.2,0,0,1,2.4.43,3.85,3.85,0,0,1,1.64,1.33,6.35,6.35,0,0,1,.93,2.35,17.34,17.34,0,0,1,.3,3.48q0,3.77-1.42,5.35t-4.84,1.58Z" style="fill:#fff"/><path d="M349.07,77.68q1.47,1.71,3.71,3.91a34.58,34.58,0,0,1,2.4,2.62,15.13,15.13,0,0,1,1.5,2.08,8.63,8.63,0,0,1,1.05,4.27,6.45,6.45,0,0,1-1.36,4.34,4.65,4.65,0,0,1-3.76,1.6,10,10,0,0,1-5.72-2.29V100a10.17,10.17,0,0,0,6.43,2.06,9.4,9.4,0,0,0,7.33-3.19,12.28,12.28,0,0,0,2.85-8.35,13.86,13.86,0,0,0-1.3-6.31,26.31,26.31,0,0,0-4.89-6.31c-1.31-1.3-2.37-2.42-3.19-3.34a17.67,17.67,0,0,1-1.77-2.26,7.26,7.26,0,0,1-1-3.94,5.82,5.82,0,0,1,1.47-4.16,4.86,4.86,0,0,1,3.79-1.64,8.59,8.59,0,0,1,4.84,1.93V58.78a12.77,12.77,0,0,0-6-1.5,9.18,9.18,0,0,0-7.22,3,11.82,11.82,0,0,0-2.66,8.12,13.06,13.06,0,0,0,1.36,6.28A18.27,18.27,0,0,0,349.07,77.68Z" style="fill:#fff"/><path d="M218.06,141.09c-1.3-1.3-2.36-2.42-3.18-3.34a17.63,17.63,0,0,1-1.77-2.27,7.12,7.12,0,0,1-1.05-3.93,5.82,5.82,0,0,1,1.47-4.16,4.88,4.88,0,0,1,3.8-1.64,8.61,8.61,0,0,1,4.83,1.92v-5.74a12.7,12.7,0,0,0-6-1.5,9.17,9.17,0,0,0-7.22,3,11.82,11.82,0,0,0-2.66,8.12,13,13,0,0,0,1.36,6.28,18.27,18.27,0,0,0,2.18,3c1,1.13,2.21,2.44,3.7,3.91a32.9,32.9,0,0,1,2.41,2.62,17.06,17.06,0,0,1,1.5,2.08,8.63,8.63,0,0,1,1.05,4.27,6.5,6.5,0,0,1-1.36,4.34,4.67,4.67,0,0,1-3.77,1.6,10,10,0,0,1-5.71-2.29v5.83a10.12,10.12,0,0,0,6.42,2.06,9.4,9.4,0,0,0,7.33-3.19,12.23,12.23,0,0,0,2.86-8.35,14,14,0,0,0-1.3-6.31A25.94,25.94,0,0,0,218.06,141.09Z" style="fill:#fff"/><polygon points="232.11 164.72 247.76 164.72 247.76 159.74 237.99 159.74 237.99 144.82 246.65 144.82 246.65 139.84 237.99 139.84 237.99 126 247.76 126 247.76 121.02 232.11 121.02 232.11 164.72" style="fill:#fff"/><rect x="256.06" y="121.02" width="5.89" height="43.69" style="fill:#fff"/><path d="M131.73,142.85a13,13,0,0,0,1.77-1.78,11.18,11.18,0,0,0,1.36-2.07,4.36,4.36,0,0,0,.54-1.94,2.24,2.24,0,0,0-.51-1.51,1.78,1.78,0,0,0-1.45-.6,3.69,3.69,0,0,0-2.57,1.09,10,10,0,0,0-2,2.64,15.71,15.71,0,0,0-1.3,3.23,11.41,11.41,0,0,0-.45,2.87,7.67,7.67,0,0,0,.21,1.81,4.29,4.29,0,0,0,.68,1.5,3.73,3.73,0,0,0,1.21,1,3.63,3.63,0,0,0,1.78.4,8.11,8.11,0,0,0,2.77-.48,10.64,10.64,0,0,0,2.48-1.29,12.7,12.7,0,0,0,2.12-1.9,12.49,12.49,0,0,0,1.62-2.28,2.27,2.27,0,0,0,.25-.49,1.7,1.7,0,0,0,.07-.56.32.32,0,0,0-.16-.28.56.56,0,0,0-.33-.1.75.75,0,0,0-.63.31q-.24.32-.42.6a16.82,16.82,0,0,1-1.22,1.75,10.82,10.82,0,0,1-1.54,1.56,8.29,8.29,0,0,1-1.82,1.11,5,5,0,0,1-2.1.44,2.08,2.08,0,0,1-1.75-.68,3,3,0,0,1-.53-1.88,6.83,6.83,0,0,1,.18-1.47A6.08,6.08,0,0,0,131.73,142.85Zm-1.26-1.77a19.05,19.05,0,0,1,.77-2,10.7,10.7,0,0,1,1-1.76c.35-.51.7-.76,1.05-.76a.47.47,0,0,1,.47.27,1.25,1.25,0,0,1,.12.54,3.27,3.27,0,0,1-.38,1.46,8.82,8.82,0,0,1-.95,1.48,9.43,9.43,0,0,1-1.22,1.3,8.64,8.64,0,0,1-1.23.93A12.39,12.39,0,0,1,130.47,141.08Z" style="fill:#fff"/><path d="M150.73,140.06c0-.26,0-.57,0-.94a5.36,5.36,0,0,0-.19-1.12,2.64,2.64,0,0,0-.47-.95,1,1,0,0,0-.84-.38,2.52,2.52,0,0,0-1.56.77,16.55,16.55,0,0,0-1.77,1.78q-.87,1-1.62,2.07c-.51.69-.88,1.23-1.14,1.6.09-.67.21-1.35.35-2a12.94,12.94,0,0,1,.59-2c.21-.56.42-1.17.62-1.84a6.91,6.91,0,0,0,.29-1.9,1.49,1.49,0,0,0-.22-.88,1,1,0,0,0-.83-.31,1.91,1.91,0,0,0-1.27.52,2.2,2.2,0,0,0-.76,1.16c-.11.53-.22,1.08-.31,1.64s-.2,1.11-.32,1.65c-.35,1.68-.7,3.42-1.06,5.24a27.44,27.44,0,0,0-.54,5.32,1,1,0,0,0,.17.61.62.62,0,0,0,.56.27,1.23,1.23,0,0,0,.86-.35,3,3,0,0,0,.57-.77q.6-1.33,1.23-2.61a26.87,26.87,0,0,1,1.4-2.5c.42-.68.88-1.39,1.4-2.14a12.79,12.79,0,0,1,1.64-1.95,3.81,3.81,0,0,1,.39-.35.69.69,0,0,1,.42-.21c.14,0,.22.09.26.28a2.87,2.87,0,0,1,.05.42c0,.67,0,1.34-.07,2s-.07,1.32-.07,2c0,.45,0,.94.05,1.47a5.27,5.27,0,0,0,.32,1.51,3,3,0,0,0,.77,1.17,2,2,0,0,0,1.42.47,3.86,3.86,0,0,0,2-.63,11.14,11.14,0,0,0,2-1.54,13.7,13.7,0,0,0,1.64-1.94,12.65,12.65,0,0,0,1.1-1.84c.05-.09.1-.21.16-.35a.9.9,0,0,0,.09-.35.78.78,0,0,0-.16-.47.52.52,0,0,0-.44-.23.62.62,0,0,0-.52.32c-.14.21-.26.4-.35.56a14.87,14.87,0,0,1-.81,1.36,12.38,12.38,0,0,1-1.19,1.56,9.83,9.83,0,0,1-1.38,1.3,2.36,2.36,0,0,1-1.42.54.91.91,0,0,1-.64-.21,1.26,1.26,0,0,1-.33-.53,2.41,2.41,0,0,1-.13-.68c0-.24,0-.47,0-.68,0-.82,0-1.63.07-2.45S150.73,140.88,150.73,140.06Z" style="fill:#fff"/><path d="M143.5,119.17l7.13-20.77a22.66,22.66,0,1,1,14.7-42.84l7.13-20.77a44.61,44.61,0,1,0-29,84.38Z" style="fill:#fff"/><path d="M156.61,100.21l-7.17,20.89a22.87,22.87,0,0,1-14.82,43.19L127.5,185a44.85,44.85,0,0,0,29.11-84.81Z" style="fill:#fff"/><path d="M124.26,158.13a21,21,0,0,1-3.89-5.58c-2.06-4.32-2.16-8.9-2.19-13.51a59.87,59.87,0,0,0-.44-8.47,41.05,41.05,0,0,0-81.66,6c0,24.2,12.49,37.53,38.7,47.18l7.07-20.51c-17.34-7.06-23.74-16.16-23.74-26.67a19,19,0,0,1,19-19,18.61,18.61,0,0,1,14.67,6.85c4.91,6.26,3.83,13.73,4.37,21.11a44.89,44.89,0,0,0,25.52,37.19l7.19-21C128.86,161.84,124.62,158.5,124.26,158.13Z" style="fill:#fff"/><path d="M339.81,167.16a1.3,1.3,0,0,0-1.09-.28l-.27,0,.57,3.21.17,0a1.46,1.46,0,0,0,1-.62,1.58,1.58,0,0,0,.21-1.22A1.77,1.77,0,0,0,339.81,167.16Z" style="fill:#fff"/><path d="M358.56,152.13l-43.12,7.61h-8V144.82h8.66v-5h-8.66V126h9.76v-5H301.58v41.16l-9.63,1.7V121H286v16.3c0,2.42.11,5,.34,7.73s.57,5.79,1,9.17a160.24,160.24,0,0,0-4.49-15.76L277.07,121h-5.49v43.7h5.8l-.31-19.05c0-.55,0-1,0-1.47s0-.8,0-1.1l-.31-5.41-.31-4.44c0-.25-.05-.54-.09-.89s-.08-.77-.14-1.26c.12.49.21.92.3,1.3s.14.7.18,1c.46,2.12.95,4.13,1.49,6.06s1.11,3.8,1.71,5.63l6.59,19.67h.77l-32.28,5.69,5.15,29.22,103.64-18.28Zm-85,37.51-2.16.38-.23-4.3-1.12.19.23,4.31-2.14.37-.23-4.3-1.35.24-.37-2.05,1.62-.29-.1-1.75-1.34.24-.36-2.07,1.6-.28-.21-4,2.13-.38.21,4,1.12-.2-.2-4,2.15-.38.21,4,1.3-.23.37,2.06-1.56.28.09,1.75,1.32-.24.37,2.06-1.58.28Zm16.06-2.83-1.41-6.33-.56-2.52c0,.49.07,1,.1,1.42s0,.9,0,1.33l-.09,6.44-3.08.54-2.12-6.06c-.12-.35-.31-1-.57-1.82,0-.13-.11-.4-.22-.8l.36,2.59.78,6.4-4,.71L278,174.44l4.7-.83,1.62,4.57c.13.38.26.78.39,1.23s.27.93.4,1.45c-.07-.9-.1-1.71-.09-2.44l.07-5.23,4.66-.82,3.83,13.74Zm6.55-1.16-2.47-14,7-1.24.58,3.29-3.24.57.36,2,2.91-.52.55,3.17-2.9.51.37,2.14,3.25-.58.59,3.36Zm9.56-1.68-2.47-14,7-1.24.58,3.29-3.24.57.36,2,2.91-.51.55,3.16-2.9.51.37,2.14,3.24-.57.6,3.36Zm14.44-2.55-3.78.67-1.87-10.64-2.09.37-.59-3.35,8-1.42.59,3.35-2.17.39ZM333,177a3.94,3.94,0,0,1-1,1.68,4.85,4.85,0,0,1-2.75,1.38,5.4,5.4,0,0,1-3.42-.39,4.59,4.59,0,0,1-2.36-3.62l-1.65-9.35,3.78-.67,1.59,9a2.88,2.88,0,0,0,.45,1.26.8.8,0,0,0,.81.25.81.81,0,0,0,.69-.49,2.89,2.89,0,0,0,0-1.35l-1.59-9,3.78-.66,1.74,9.89A4.6,4.6,0,0,1,333,177Zm10.3-5.27a5.41,5.41,0,0,1-3.1,1.42l-.59.1.81,4.59-3.78.66-2.46-14,3.66-.65a6.28,6.28,0,0,1,4.25.4,4.58,4.58,0,0,1,2.2,3.38A4.49,4.49,0,0,1,343.26,171.75Zm10.42,2.63a4.24,4.24,0,0,1-2.95,1.9,8.06,8.06,0,0,1-3-.08l-.78-4.39a3.14,3.14,0,0,0,2.68,1.09,1.19,1.19,0,0,0,.75-.4.83.83,0,0,0,.2-.7,1.52,1.52,0,0,0-.87-1l-.7-.37a8.41,8.41,0,0,1-1.21-.73,4.89,4.89,0,0,1-.87-.82,4.12,4.12,0,0,1-.58-.93,5,5,0,0,1-.32-1.06,5.37,5.37,0,0,1,.1-2.13,5.14,5.14,0,0,1,.36-1,3.79,3.79,0,0,1,.56-.85,3.88,3.88,0,0,1,2.42-1.36,6,6,0,0,1,2.85.23l.75,4.28a4,4,0,0,0-1.25-1,2.06,2.06,0,0,0-1.23-.2,1,1,0,0,0-.67.38.74.74,0,0,0-.19.64c.07.37.39.7,1,1l.67.34a6,6,0,0,1,2,1.47,4.36,4.36,0,0,1,.9,2A4.87,4.87,0,0,1,353.68,174.38Z" style="fill:#fff"/><polygon points="269.85 182.07 269.94 183.81 271.07 183.61 270.97 181.87 269.85 182.07" style="fill:#fff"/></svg>